{
    "asset" : {
        "generator" : "Khronos glTF Blender I/O v1.3.48",
        "version" : "2.0"
    },
    "scene" : 0,
    "scenes" : [
        {
            "name" : "Scene",
            "nodes" : [
                0
            ]
        }
    ],
    "nodes" : [
        {
            "mesh" : 0,
            "name" : "Text",
            "translation" : [
                2.7653512954711914,
                0.0550156906247139,
                -0.3372223973274231
            ]
        }
    ],
    "materials" : [
        {
            "doubleSided" : true,
            "emissiveFactor" : [
                0,
                0,
                0
            ],
            "name" : "Material.001",
            "pbrMetallicRoughness" : {
                "baseColorFactor" : [
                    0.8000000715255737,
                    0.11918892711400986,
                    0.1796949952840805,
                    1
                ],
                "metallicFactor" : 1,
                "roughnessFactor" : 0.5
            }
        }
    ],
    "meshes" : [
        {
            "name" : "Text",
            "primitives" : [
                {
                    "attributes" : {
                        "POSITION" : 0,
                        "NORMAL" : 1,
                        "TEXCOORD_0" : 2
                    },
                    "indices" : 3,
                    "material" : 0
                }
            ]
        }
    ],
    "accessors" : [
        {
            "bufferView" : 0,
            "componentType" : 5126,
            "count" : 1566,
            "max" : [
                2.834648609161377,
                0.055015549063682556,
                0.3462224006652832
            ],
            "min" : [
                -2.6903512477874756,
                -0.0550156906247139,
                -0.3537776470184326
            ],
            "type" : "VEC3"
        },
        {
            "bufferView" : 1,
            "componentType" : 5126,
            "count" : 1566,
            "type" : "VEC3"
        },
        {
            "bufferView" : 2,
            "componentType" : 5126,
            "count" : 1566,
            "type" : "VEC2"
        },
        {
            "bufferView" : 3,
            "componentType" : 5123,
            "count" : 4140,
            "type" : "SCALAR"
        }
    ],
    "bufferViews" : [
        {
            "buffer" : 0,
            "byteLength" : 18792,
            "byteOffset" : 0
        },
        {
            "buffer" : 0,
            "byteLength" : 18792,
            "byteOffset" : 18792
        },
        {
            "buffer" : 0,
            "byteLength" : 12528,
            "byteOffset" : 37584
        },
        {
            "buffer" : 0,
            "byteLength" : 8280,
            "byteOffset" : 50112
        }
    ],
    "buffers" : [
        {
            "byteLength" : 58392,
            "uri" : "data:application/octet-stream;base64,"
        }
    ]
}
