{
    "asset" : {
        "generator" : "Khronos glTF Blender I/O v1.3.48",
        "version" : "2.0"
    },
    "scene" : 0,
    "scenes" : [
        {
            "name" : "Scene",
            "nodes" : [
                0,
                1,
                2,
                3,
                4,
                5,
                6,
                7,
                8,
                9,
                10
            ]
        }
    ],
    "nodes" : [
        {
            "name" : "Empty",
            "rotation" : [
                0.7071068286895752,
                0,
                0,
                0.7071068286895752
            ],
            "scale" : [
                3.32822585105896,
                3.32822585105896,
                3.32822585105896
            ]
        },
        {
            "mesh" : 0,
            "name" : "Cube",
            "translation" : [
                -1.9121289253234863,
                0.49681514501571655,
                -0.00032138809910975397
            ]
        },
        {
            "mesh" : 1,
            "name" : "Cube.001",
            "translation" : [
                -2.689981460571289,
                -0.11733201146125793,
                0
            ]
        },
        {
            "mesh" : 2,
            "name" : "Cylinder",
            "rotation" : [
                0,
                0,
                -0.7071067690849304,
                0.7071068286895752
            ],
            "translation" : [
                3.9032437801361084,
                0.7882485389709473,
                0
            ]
        },
        {
            "mesh" : 3,
            "name" : "Cylinder.001",
            "rotation" : [
                0,
                0,
                -0.7071067690849304,
                0.7071068286895752
            ],
            "translation" : [
                2.7018330097198486,
                0.27483394742012024,
                0
            ]
        },
        {
            "mesh" : 4,
            "name" : "Cylinder.002",
            "rotation" : [
                0,
                0,
                -0.7071067690849304,
                0.7071068286895752
            ],
            "translation" : [
                2.1544666290283203,
                0.25906190276145935,
                0
            ]
        },
        {
            "mesh" : 5,
            "name" : "Cube.002",
            "rotation" : [
                0,
                0,
                0.00962494220584631,
                0.9999536871910095
            ],
            "translation" : [
                0.3078160881996155,
                0.48985785245895386,
                0
            ]
        },
        {
            "mesh" : 6,
            "name" : "Cylinder.003",
            "rotation" : [
                0.10115407407283783,
                0.10115407407283783,
                -0.6998341679573059,
                0.6998342275619507
            ],
            "translation" : [
                -1.3954349756240845,
                0.6870468258857727,
                0.05343592166900635
            ]
        },
        {
            "mesh" : 7,
            "name" : "Cube.003",
            "translation" : [
                -3.034540891647339,
                -0.03287487104535103,
                0
            ]
        },
        {
            "mesh" : 8,
            "name" : "Cube.004",
            "translation" : [
                -5.804254531860352,
                -0.28612709045410156,
                0
            ]
        },
        {
            "mesh" : 9,
            "name" : "Cube.005",
            "translation" : [
                -7.881389141082764,
                -0.7773496508598328,
                0
            ]
        }
    ],
    "materials" : [
        {
            "doubleSided" : true,
            "emissiveFactor" : [
                0,
                0,
                0
            ],
            "name" : "zad",
            "normalTexture" : {
                "index" : 0,
                "scale" : 2.8999998569488525,
                "texCoord" : 0
            },
            "pbrMetallicRoughness" : {
                "baseColorTexture" : {
                    "index" : 1,
                    "texCoord" : 0
                },
                "metallicRoughnessTexture" : {
                    "index" : 2,
                    "texCoord" : 0
                }
            }
        },
        {
            "doubleSided" : true,
            "emissiveFactor" : [
                0,
                0,
                0
            ],
            "name" : "peted",
            "normalTexture" : {
                "index" : 3,
                "texCoord" : 0
            },
            "pbrMetallicRoughness" : {
                "baseColorTexture" : {
                    "index" : 4,
                    "texCoord" : 0
                },
                "metallicRoughnessTexture" : {
                    "index" : 5,
                    "texCoord" : 0
                }
            }
        }
    ],
    "meshes" : [
        {
            "name" : "Cube.002",
            "primitives" : [
                {
                    "attributes" : {
                        "POSITION" : 0,
                        "NORMAL" : 1,
                        "TEXCOORD_0" : 2
                    },
                    "indices" : 3,
                    "material" : 0
                }
            ]
        },
        {
            "name" : "Cube.004",
            "primitives" : [
                {
                    "attributes" : {
                        "POSITION" : 4,
                        "NORMAL" : 5,
                        "TEXCOORD_0" : 6
                    },
                    "indices" : 7,
                    "material" : 0
                }
            ]
        },
        {
            "name" : "Cylinder",
            "primitives" : [
                {
                    "attributes" : {
                        "POSITION" : 8,
                        "NORMAL" : 9,
                        "TEXCOORD_0" : 10
                    },
                    "indices" : 11,
                    "material" : 1
                }
            ]
        },
        {
            "name" : "Cylinder.001",
            "primitives" : [
                {
                    "attributes" : {
                        "POSITION" : 12,
                        "NORMAL" : 13,
                        "TEXCOORD_0" : 14
                    },
                    "indices" : 15,
                    "material" : 1
                }
            ]
        },
        {
            "name" : "Cylinder.002",
            "primitives" : [
                {
                    "attributes" : {
                        "POSITION" : 16,
                        "NORMAL" : 17,
                        "TEXCOORD_0" : 18
                    },
                    "indices" : 19,
                    "material" : 1
                }
            ]
        },
        {
            "name" : "Cube.005",
            "primitives" : [
                {
                    "attributes" : {
                        "POSITION" : 20,
                        "NORMAL" : 21,
                        "TEXCOORD_0" : 22
                    },
                    "indices" : 23,
                    "material" : 1
                }
            ]
        },
        {
            "name" : "Cylinder.003",
            "primitives" : [
                {
                    "attributes" : {
                        "POSITION" : 24,
                        "NORMAL" : 25,
                        "TEXCOORD_0" : 26
                    },
                    "indices" : 27,
                    "material" : 0
                }
            ]
        },
        {
            "name" : "Cube.006",
            "primitives" : [
                {
                    "attributes" : {
                        "POSITION" : 28,
                        "NORMAL" : 29,
                        "TEXCOORD_0" : 30
                    },
                    "indices" : 31,
                    "material" : 0
                }
            ]
        },
        {
            "name" : "Cube.007",
            "primitives" : [
                {
                    "attributes" : {
                        "POSITION" : 32,
                        "NORMAL" : 33,
                        "TEXCOORD_0" : 34
                    },
                    "indices" : 35,
                    "material" : 0
                }
            ]
        },
        {
            "name" : "Cube.008",
            "primitives" : [
                {
                    "attributes" : {
                        "POSITION" : 36,
                        "NORMAL" : 37,
                        "TEXCOORD_0" : 38
                    },
                    "indices" : 39,
                    "material" : 0
                }
            ]
        }
    ],
    "textures" : [
        {
            "source" : 0
        },
        {
            "source" : 1
        },
        {
            "source" : 2
        },
        {
            "source" : 3
        },
        {
            "source" : 4
        },
        {
            "source" : 5
        }
    ],
    "images" : [
        {
            "mimeType" : "image/png",
            "name" : "zad_Normal_OpenGL",
            "uri" : "zad_Normal_OpenGL.png"
        },
        {
            "mimeType" : "image/png",
            "name" : "zad_Base_color",
            "uri" : "zad_Base_color.png"
        },
        {
            "mimeType" : "image/png",
            "name" : "zad_Metallic-zad_Roughness",
            "uri" : "zad_Metallic-zad_Roughness.png"
        },
        {
            "mimeType" : "image/png",
            "name" : "peted_Normal",
            "uri" : "peted_Normal.png"
        },
        {
            "mimeType" : "image/png",
            "name" : "peted_Base_color",
            "uri" : "peted_Base_color.png"
        },
        {
            "mimeType" : "image/png",
            "name" : "peted_Metallic-peted_Roughness",
            "uri" : "peted_Metallic-peted_Roughness.png"
        }
    ],
    "accessors" : [
        {
            "bufferView" : 0,
            "componentType" : 5126,
            "count" : 311,
            "max" : [
                1.3346593379974365,
                0.4582567811012268,
                0.2209322303533554
            ],
            "min" : [
                -1.5685911178588867,
                -0.44599902629852295,
                -0.2202894538640976
            ],
            "type" : "VEC3"
        },
        {
            "bufferView" : 1,
            "componentType" : 5126,
            "count" : 311,
            "type" : "VEC3"
        },
        {
            "bufferView" : 2,
            "componentType" : 5126,
            "count" : 311,
            "type" : "VEC2"
        },
        {
            "bufferView" : 3,
            "componentType" : 5123,
            "count" : 1068,
            "type" : "SCALAR"
        },
        {
            "bufferView" : 4,
            "componentType" : 5126,
            "count" : 562,
            "max" : [
                0.7573623657226562,
                0.2092711329460144,
                0.08602362126111984
            ],
            "min" : [
                -0.6403610110282898,
                -0.2774619162082672,
                -0.08602362126111984
            ],
            "type" : "VEC3"
        },
        {
            "bufferView" : 5,
            "componentType" : 5126,
            "count" : 562,
            "type" : "VEC3"
        },
        {
            "bufferView" : 6,
            "componentType" : 5126,
            "count" : 562,
            "type" : "VEC2"
        },
        {
            "bufferView" : 7,
            "componentType" : 5123,
            "count" : 2010,
            "type" : "SCALAR"
        },
        {
            "bufferView" : 8,
            "componentType" : 5126,
            "count" : 1625,
            "max" : [
                0.28664687275886536,
                4.325230121612549,
                0.21471580862998962
            ],
            "min" : [
                -0.20744483172893524,
                -4.500369548797607,
                -0.21471580862998962
            ],
            "type" : "VEC3"
        },
        {
            "bufferView" : 9,
            "componentType" : 5126,
            "count" : 1625,
            "type" : "VEC3"
        },
        {
            "bufferView" : 10,
            "componentType" : 5126,
            "count" : 1625,
            "type" : "VEC2"
        },
        {
            "bufferView" : 11,
            "componentType" : 5123,
            "count" : 5742,
            "type" : "SCALAR"
        },
        {
            "bufferView" : 12,
            "componentType" : 5126,
            "count" : 546,
            "max" : [
                0.25462374091148376,
                1.6681596040725708,
                0.24136792123317719
            ],
            "min" : [
                -0.38010698556900024,
                -3.354032039642334,
                -0.24136792123317719
            ],
            "type" : "VEC3"
        },
        {
            "bufferView" : 13,
            "componentType" : 5126,
            "count" : 546,
            "type" : "VEC3"
        },
        {
            "bufferView" : 14,
            "componentType" : 5126,
            "count" : 546,
            "type" : "VEC2"
        },
        {
            "bufferView" : 15,
            "componentType" : 5123,
            "count" : 1488,
            "type" : "SCALAR"
        },
        {
            "bufferView" : 16,
            "componentType" : 5126,
            "count" : 1900,
            "max" : [
                0.3481425642967224,
                1.4340533018112183,
                0.34919023513793945
            ],
            "min" : [
                -0.3502379059791565,
                -1.2538976669311523,
                -0.3491903245449066
            ],
            "type" : "VEC3"
        },
        {
            "bufferView" : 17,
            "componentType" : 5126,
            "count" : 1900,
            "type" : "VEC3"
        },
        {
            "bufferView" : 18,
            "componentType" : 5126,
            "count" : 1900,
            "type" : "VEC2"
        },
        {
            "bufferView" : 19,
            "componentType" : 5123,
            "count" : 5382,
            "type" : "SCALAR"
        },
        {
            "bufferView" : 20,
            "componentType" : 5126,
            "count" : 24,
            "max" : [
                0.9184402823448181,
                0.05856610834598541,
                0.02766154333949089
            ],
            "min" : [
                -0.9184402823448181,
                -0.05856610834598541,
                -0.02766154333949089
            ],
            "type" : "VEC3"
        },
        {
            "bufferView" : 21,
            "componentType" : 5126,
            "count" : 24,
            "type" : "VEC3"
        },
        {
            "bufferView" : 22,
            "componentType" : 5126,
            "count" : 24,
            "type" : "VEC2"
        },
        {
            "bufferView" : 23,
            "componentType" : 5123,
            "count" : 36,
            "type" : "SCALAR"
        },
        {
            "bufferView" : 24,
            "componentType" : 5126,
            "count" : 34,
            "max" : [
                0.14889714121818542,
                0.49396416544914246,
                0.14889714121818542
            ],
            "min" : [
                -0.14889714121818542,
                -0.49396416544914246,
                -0.14889714121818542
            ],
            "type" : "VEC3"
        },
        {
            "bufferView" : 25,
            "componentType" : 5126,
            "count" : 34,
            "type" : "VEC3"
        },
        {
            "bufferView" : 26,
            "componentType" : 5126,
            "count" : 34,
            "type" : "VEC2"
        },
        {
            "bufferView" : 27,
            "componentType" : 5123,
            "count" : 84,
            "type" : "SCALAR"
        },
        {
            "bufferView" : 28,
            "componentType" : 5126,
            "count" : 74,
            "max" : [
                0.1024920642375946,
                0.12241466343402863,
                0.012989355251193047
            ],
            "min" : [
                -0.09958057850599289,
                -0.2570416033267975,
                -0.012989356182515621
            ],
            "type" : "VEC3"
        },
        {
            "bufferView" : 29,
            "componentType" : 5126,
            "count" : 74,
            "type" : "VEC3"
        },
        {
            "bufferView" : 30,
            "componentType" : 5126,
            "count" : 74,
            "type" : "VEC2"
        },
        {
            "bufferView" : 31,
            "componentType" : 5123,
            "count" : 180,
            "type" : "SCALAR"
        },
        {
            "bufferView" : 32,
            "componentType" : 5126,
            "count" : 410,
            "max" : [
                2.3992838859558105,
                1.0391640663146973,
                0.22631137073040009
            ],
            "min" : [
                -1.81602144241333,
                -1.2569793462753296,
                -0.22631151974201202
            ],
            "type" : "VEC3"
        },
        {
            "bufferView" : 33,
            "componentType" : 5126,
            "count" : 410,
            "type" : "VEC3"
        },
        {
            "bufferView" : 34,
            "componentType" : 5126,
            "count" : 410,
            "type" : "VEC2"
        },
        {
            "bufferView" : 35,
            "componentType" : 5123,
            "count" : 1590,
            "type" : "SCALAR"
        },
        {
            "bufferView" : 36,
            "componentType" : 5126,
            "count" : 376,
            "max" : [
                0.3251807689666748,
                0.9742170572280884,
                0.2270357757806778
            ],
            "min" : [
                -0.31975898146629333,
                -1.0926170349121094,
                -0.2270394116640091
            ],
            "type" : "VEC3"
        },
        {
            "bufferView" : 37,
            "componentType" : 5126,
            "count" : 376,
            "type" : "VEC3"
        },
        {
            "bufferView" : 38,
            "componentType" : 5126,
            "count" : 376,
            "type" : "VEC2"
        },
        {
            "bufferView" : 39,
            "componentType" : 5123,
            "count" : 1488,
            "type" : "SCALAR"
        }
    ],
    "bufferViews" : [
        {
            "buffer" : 0,
            "byteLength" : 3732,
            "byteOffset" : 0
        },
        {
            "buffer" : 0,
            "byteLength" : 3732,
            "byteOffset" : 3732
        },
        {
            "buffer" : 0,
            "byteLength" : 2488,
            "byteOffset" : 7464
        },
        {
            "buffer" : 0,
            "byteLength" : 2136,
            "byteOffset" : 9952
        },
        {
            "buffer" : 0,
            "byteLength" : 6744,
            "byteOffset" : 12088
        },
        {
            "buffer" : 0,
            "byteLength" : 6744,
            "byteOffset" : 18832
        },
        {
            "buffer" : 0,
            "byteLength" : 4496,
            "byteOffset" : 25576
        },
        {
            "buffer" : 0,
            "byteLength" : 4020,
            "byteOffset" : 30072
        },
        {
            "buffer" : 0,
            "byteLength" : 19500,
            "byteOffset" : 34092
        },
        {
            "buffer" : 0,
            "byteLength" : 19500,
            "byteOffset" : 53592
        },
        {
            "buffer" : 0,
            "byteLength" : 13000,
            "byteOffset" : 73092
        },
        {
            "buffer" : 0,
            "byteLength" : 11484,
            "byteOffset" : 86092
        },
        {
            "buffer" : 0,
            "byteLength" : 6552,
            "byteOffset" : 97576
        },
        {
            "buffer" : 0,
            "byteLength" : 6552,
            "byteOffset" : 104128
        },
        {
            "buffer" : 0,
            "byteLength" : 4368,
            "byteOffset" : 110680
        },
        {
            "buffer" : 0,
            "byteLength" : 2976,
            "byteOffset" : 115048
        },
        {
            "buffer" : 0,
            "byteLength" : 22800,
            "byteOffset" : 118024
        },
        {
            "buffer" : 0,
            "byteLength" : 22800,
            "byteOffset" : 140824
        },
        {
            "buffer" : 0,
            "byteLength" : 15200,
            "byteOffset" : 163624
        },
        {
            "buffer" : 0,
            "byteLength" : 10764,
            "byteOffset" : 178824
        },
        {
            "buffer" : 0,
            "byteLength" : 288,
            "byteOffset" : 189588
        },
        {
            "buffer" : 0,
            "byteLength" : 288,
            "byteOffset" : 189876
        },
        {
            "buffer" : 0,
            "byteLength" : 192,
            "byteOffset" : 190164
        },
        {
            "buffer" : 0,
            "byteLength" : 72,
            "byteOffset" : 190356
        },
        {
            "buffer" : 0,
            "byteLength" : 408,
            "byteOffset" : 190428
        },
        {
            "buffer" : 0,
            "byteLength" : 408,
            "byteOffset" : 190836
        },
        {
            "buffer" : 0,
            "byteLength" : 272,
            "byteOffset" : 191244
        },
        {
            "buffer" : 0,
            "byteLength" : 168,
            "byteOffset" : 191516
        },
        {
            "buffer" : 0,
            "byteLength" : 888,
            "byteOffset" : 191684
        },
        {
            "buffer" : 0,
            "byteLength" : 888,
            "byteOffset" : 192572
        },
        {
            "buffer" : 0,
            "byteLength" : 592,
            "byteOffset" : 193460
        },
        {
            "buffer" : 0,
            "byteLength" : 360,
            "byteOffset" : 194052
        },
        {
            "buffer" : 0,
            "byteLength" : 4920,
            "byteOffset" : 194412
        },
        {
            "buffer" : 0,
            "byteLength" : 4920,
            "byteOffset" : 199332
        },
        {
            "buffer" : 0,
            "byteLength" : 3280,
            "byteOffset" : 204252
        },
        {
            "buffer" : 0,
            "byteLength" : 3180,
            "byteOffset" : 207532
        },
        {
            "buffer" : 0,
            "byteLength" : 4512,
            "byteOffset" : 210712
        },
        {
            "buffer" : 0,
            "byteLength" : 4512,
            "byteOffset" : 215224
        },
        {
            "buffer" : 0,
            "byteLength" : 3008,
            "byteOffset" : 219736
        },
        {
            "buffer" : 0,
            "byteLength" : 2976,
            "byteOffset" : 222744
        }
    ],
    "buffers" : [
        {
            "byteLength" : 225720,
            "uri" : "shotGun.bin"
        }
    ]
}
