{
  "accessors": [
    {
      "bufferView": 0,
      "componentType": 5125,
      "count": 2214,
      "type": "SCALAR"
    },
    {
      "bufferView": 1,
      "componentType": 5126,
      "count": 491,
      "max": [
        0.0309261418879032,
        0.124707862734795,
        0.520833671092987
      ],
      "min": [
        -0.0723361819982529,
        0.0481233298778534,
        0.0660772323608398
      ],
      "type": "VEC3"
    },
    {
      "bufferView": 2,
      "componentType": 5126,
      "count": 491,
      "type": "VEC3"
    },
    {
      "bufferView": 3,
      "componentType": 5126,
      "count": 491,
      "type": "VEC2"
    },
    {
      "bufferView": 4,
      "componentType": 5125,
      "count": 43518,
      "type": "SCALAR"
    },
    {
      "bufferView": 5,
      "componentType": 5126,
      "count": 10224,
      "max": [
        0.077514223754406,
        0.337269634008408,
        2.57071876525879
      ],
      "min": [
        -0.103131785988808,
        -0.485704869031906,
        -2.59955096244812
      ],
      "type": "VEC3"
    },
    {
      "bufferView": 6,
      "componentType": 5126,
      "count": 10224,
      "type": "VEC3"
    },
    {
      "bufferView": 7,
      "componentType": 5126,
      "count": 10224,
      "type": "VEC2"
    },
    {
      "bufferView": 8,
      "componentType": 5125,
      "count": 17772,
      "type": "SCALAR"
    },
    {
      "bufferView": 9,
      "componentType": 5126,
      "count": 3861,
      "max": [
        0.0859024748206139,
        0.315234959125519,
        0.511071562767029
      ],
      "min": [
        -0.127443701028824,
        0.0145613551139832,
        -1.39033854007721
      ],
      "type": "VEC3"
    },
    {
      "bufferView": 10,
      "componentType": 5126,
      "count": 3861,
      "type": "VEC3"
    },
    {
      "bufferView": 11,
      "componentType": 5126,
      "count": 3861,
      "type": "VEC2"
    },
    {
      "bufferView": 12,
      "componentType": 5125,
      "count": 510,
      "type": "SCALAR"
    },
    {
      "bufferView": 13,
      "componentType": 5126,
      "count": 163,
      "max": [
        -0.0136620793491602,
        0.0775199383497238,
        0.885127425193787
      ],
      "min": [
        -0.0286361575126648,
        -0.0630977526307106,
        0.781604409217834
      ],
      "type": "VEC3"
    },
    {
      "bufferView": 14,
      "componentType": 5126,
      "count": 163,
      "type": "VEC3"
    },
    {
      "bufferView": 15,
      "componentType": 5126,
      "count": 163,
      "type": "VEC2"
    }
  ],
  "asset": {
    "generator": "Adobe Substance 3D Painter 7.4.3",
    "version": "2.0"
  },
  "bufferViews": [
    {
      "buffer": 0,
      "byteLength": 8856,
      "target": 34963
    },
    {
      "buffer": 0,
      "byteLength": 5892,
      "byteOffset": 8856,
      "target": 34962
    },
    {
      "buffer": 0,
      "byteLength": 5892,
      "byteOffset": 14748,
      "target": 34962
    },
    {
      "buffer": 0,
      "byteLength": 3928,
      "byteOffset": 20640,
      "target": 34962
    },
    {
      "buffer": 0,
      "byteLength": 174072,
      "byteOffset": 24568,
      "target": 34963
    },
    {
      "buffer": 0,
      "byteLength": 122688,
      "byteOffset": 198640,
      "target": 34962
    },
    {
      "buffer": 0,
      "byteLength": 122688,
      "byteOffset": 321328,
      "target": 34962
    },
    {
      "buffer": 0,
      "byteLength": 81792,
      "byteOffset": 444016,
      "target": 34962
    },
    {
      "buffer": 0,
      "byteLength": 71088,
      "byteOffset": 525808,
      "target": 34963
    },
    {
      "buffer": 0,
      "byteLength": 46332,
      "byteOffset": 596896,
      "target": 34962
    },
    {
      "buffer": 0,
      "byteLength": 46332,
      "byteOffset": 643228,
      "target": 34962
    },
    {
      "buffer": 0,
      "byteLength": 30888,
      "byteOffset": 689560,
      "target": 34962
    },
    {
      "buffer": 0,
      "byteLength": 2040,
      "byteOffset": 720448,
      "target": 34963
    },
    {
      "buffer": 0,
      "byteLength": 1956,
      "byteOffset": 722488,
      "target": 34962
    },
    {
      "buffer": 0,
      "byteLength": 1956,
      "byteOffset": 724444,
      "target": 34962
    },
    {
      "buffer": 0,
      "byteLength": 1304,
      "byteOffset": 726400,
      "target": 34962
    }
  ],
  "buffers": [
    {
      "byteLength": 727704,
      "uri": "shotGunGravirovka.bin"
    }
  ],
  "images": [
    {
      "uri": "07 - Default_baseColor.png"
    },
    {
      "uri": "07 - Default_occlusionRoughnessMetallic.png"
    },
    {
      "uri": "07 - Default_normal.png"
    }
  ],
  "materials": [
    {
      "alphaMode": "OPAQUE",
      "name": "07 - Default",
      "normalTexture": {
        "index": 2
      },
      "occlusionTexture": {
        "index": 1
      },
      "pbrMetallicRoughness": {
        "baseColorTexture": {
          "index": 0
        },
        "metallicRoughnessTexture": {
          "index": 1
        }
      }
    }
  ],
  "meshes": [
    {
      "name": "Mesh",
      "primitives": [
        {
          "attributes": {
            "NORMAL": 2,
            "POSITION": 1,
            "TEXCOORD_0": 3
          },
          "indices": 0,
          "material": 0,
          "mode": 4
        }
      ]
    },
    {
      "name": "Mesh.001",
      "primitives": [
        {
          "attributes": {
            "NORMAL": 6,
            "POSITION": 5,
            "TEXCOORD_0": 7
          },
          "indices": 4,
          "material": 0,
          "mode": 4
        }
      ]
    },
    {
      "name": "Mesh.002",
      "primitives": [
        {
          "attributes": {
            "NORMAL": 10,
            "POSITION": 9,
            "TEXCOORD_0": 11
          },
          "indices": 8,
          "material": 0,
          "mode": 4
        }
      ]
    },
    {
      "name": "Mesh.003",
      "primitives": [
        {
          "attributes": {
            "NORMAL": 14,
            "POSITION": 13,
            "TEXCOORD_0": 15
          },
          "indices": 12,
          "material": 0,
          "mode": 4
        }
      ]
    }
  ],
  "nodes": [
    {
      "children": [
        1,
        3,
        5,
        7
      ],
      "name": "ROOT"
    },
    {
      "children": [
        2
      ],
      "name": "Object122",
      "rotation": [
        0.0,
        -0.707106828689575,
        0.0,
        0.707106709480286
      ],
      "scale": [
        1.03864896297455,
        1.03864884376526,
        1.03864896297455
      ],
      "translation": [
        0.0,
        -0.035181038081646,
        0.0
      ]
    },
    {
      "mesh": 0,
      "name": "Mesh"
    },
    {
      "children": [
        4
      ],
      "name": "Object123",
      "rotation": [
        0.0,
        -0.707106828689575,
        0.0,
        0.707106709480286
      ],
      "scale": [
        1.03864896297455,
        1.03864884376526,
        1.03864896297455
      ],
      "translation": [
        0.0,
        -0.035181038081646,
        0.0
      ]
    },
    {
      "mesh": 1,
      "name": "Mesh.001"
    },
    {
      "children": [
        6
      ],
      "name": "Object129",
      "rotation": [
        0.0,
        -0.707106828689575,
        0.0,
        0.707106709480286
      ],
      "scale": [
        1.03864896297455,
        1.03864884376526,
        1.03864896297455
      ],
      "translation": [
        0.0,
        -0.035181038081646,
        0.0
      ]
    },
    {
      "mesh": 2,
      "name": "Mesh.002"
    },
    {
      "children": [
        8
      ],
      "name": "Object133",
      "rotation": [
        0.0,
        -0.707106828689575,
        0.0,
        0.707106709480286
      ],
      "scale": [
        1.03864896297455,
        1.03864884376526,
        1.03864896297455
      ],
      "translation": [
        0.0,
        -0.035181038081646,
        0.0
      ]
    },
    {
      "mesh": 3,
      "name": "Mesh.003"
    }
  ],
  "samplers": [
    {
      "magFilter": 9729,
      "minFilter": 9985,
      "wrapS": 10497,
      "wrapT": 10497
    }
  ],
  "scene": 0,
  "scenes": [
    {
      "name": "Scene",
      "nodes": [
        0
      ]
    }
  ],
  "textures": [
    {
      "sampler": 0,
      "source": 0
    },
    {
      "sampler": 0,
      "source": 1
    },
    {
      "sampler": 0,
      "source": 2
    }
  ]
}